<svg width="98" height="40" viewBox="0 0 98 40" fill="none" xmlns="http://www.w3.org/2000/svg">
<rect x="0.5" y="0.5" width="97" height="39" rx="7.5" stroke="white"/>
<path d="M16.49 24.5C16.4153 24.5 16.3453 24.472 16.28 24.416C16.224 24.36 16.196 24.29 16.196 24.206C16.196 24.1687 16.2053 24.1267 16.224 24.08L19.598 15.05C19.626 14.9567 19.6773 14.8773 19.752 14.812C19.836 14.7373 19.948 14.7 20.088 14.7H21.614C21.754 14.7 21.8613 14.7373 21.936 14.812C22.0107 14.8773 22.0667 14.9567 22.104 15.05L25.478 24.08C25.4873 24.1267 25.492 24.1687 25.492 24.206C25.492 24.29 25.464 24.36 25.408 24.416C25.352 24.472 25.2867 24.5 25.212 24.5H23.994C23.8633 24.5 23.7653 24.472 23.7 24.416C23.644 24.3507 23.6067 24.29 23.588 24.234L22.93 22.526H18.772L18.114 24.234C18.0953 24.29 18.0533 24.3507 17.988 24.416C17.932 24.472 17.8387 24.5 17.708 24.5H16.49ZM19.262 20.916H22.44L20.844 16.59L19.262 20.916ZM27.385 24.5C27.2917 24.5 27.2124 24.4673 27.147 24.402C27.0817 24.3367 27.049 24.2573 27.049 24.164V15.05C27.049 14.9473 27.0817 14.8633 27.147 14.798C27.2124 14.7327 27.2917 14.7 27.385 14.7H30.801C31.7437 14.7 32.5184 14.8447 33.125 15.134C33.741 15.4233 34.203 15.8527 34.511 16.422C34.8284 16.9913 34.9917 17.6867 35.001 18.508C35.0197 18.9187 35.029 19.2827 35.029 19.6C35.029 19.9173 35.0197 20.2767 35.001 20.678C34.9824 21.546 34.8237 22.2647 34.525 22.834C34.2264 23.394 33.7737 23.814 33.167 24.094C32.5697 24.3647 31.8044 24.5 30.871 24.5H27.385ZM28.995 22.89H30.801C31.3237 22.89 31.7484 22.8153 32.075 22.666C32.4017 22.5167 32.6397 22.2787 32.789 21.952C32.9477 21.616 33.0317 21.1773 33.041 20.636C33.0504 20.356 33.055 20.1133 33.055 19.908C33.0644 19.6933 33.0644 19.4833 33.055 19.278C33.055 19.0633 33.0504 18.8207 33.041 18.55C33.0224 17.7847 32.831 17.22 32.467 16.856C32.103 16.492 31.5244 16.31 30.731 16.31H28.995V22.89ZM37.4928 24.5C37.3901 24.5 37.3061 24.4673 37.2408 24.402C37.1754 24.3367 37.1428 24.2573 37.1428 24.164V15.05C37.1428 14.9473 37.1754 14.8633 37.2408 14.798C37.3061 14.7327 37.3901 14.7 37.4928 14.7H38.5988C38.7294 14.7 38.8274 14.7373 38.8928 14.812C38.9581 14.8773 39.0001 14.9287 39.0188 14.966L41.7208 20.006L44.4508 14.966C44.4694 14.9287 44.5114 14.8773 44.5768 14.812C44.6421 14.7373 44.7401 14.7 44.8708 14.7H45.9628C46.0654 14.7 46.1494 14.7327 46.2148 14.798C46.2801 14.8633 46.3128 14.9473 46.3128 15.05V24.164C46.3128 24.2573 46.2801 24.3367 46.2148 24.402C46.1494 24.4673 46.0654 24.5 45.9628 24.5H44.7868C44.6841 24.5 44.6001 24.4673 44.5348 24.402C44.4788 24.3367 44.4508 24.2573 44.4508 24.164V18.102L42.4908 21.84C42.4441 21.924 42.3834 21.9987 42.3088 22.064C42.2341 22.12 42.1361 22.148 42.0148 22.148H41.4408C41.3101 22.148 41.2074 22.12 41.1328 22.064C41.0674 21.9987 41.0114 21.924 40.9648 21.84L39.0048 18.102V24.164C39.0048 24.2573 38.9721 24.3367 38.9068 24.402C38.8414 24.4673 38.7621 24.5 38.6688 24.5H37.4928ZM49.0764 24.5C48.9831 24.5 48.9038 24.4673 48.8384 24.402C48.7731 24.3367 48.7404 24.2573 48.7404 24.164V15.036C48.7404 14.9427 48.7731 14.8633 48.8384 14.798C48.9038 14.7327 48.9831 14.7 49.0764 14.7H50.3924C50.4951 14.7 50.5744 14.7327 50.6304 14.798C50.6958 14.8633 50.7284 14.9427 50.7284 15.036V24.164C50.7284 24.2573 50.6958 24.3367 50.6304 24.402C50.5744 24.4673 50.4951 24.5 50.3924 24.5H49.0764ZM53.51 24.5C53.4167 24.5 53.3374 24.4673 53.272 24.402C53.2067 24.3367 53.174 24.2573 53.174 24.164V15.05C53.174 14.9473 53.2067 14.8633 53.272 14.798C53.3374 14.7327 53.4167 14.7 53.51 14.7H54.588C54.7187 14.7 54.812 14.7327 54.868 14.798C54.9334 14.854 54.9754 14.896 54.994 14.924L59.026 21.196V15.05C59.026 14.9473 59.054 14.8633 59.11 14.798C59.1754 14.7327 59.2594 14.7 59.362 14.7H60.538C60.6407 14.7 60.7247 14.7327 60.79 14.798C60.8554 14.8633 60.888 14.9473 60.888 15.05V24.15C60.888 24.2527 60.8554 24.3367 60.79 24.402C60.7247 24.4673 60.6454 24.5 60.552 24.5H59.46C59.3294 24.5 59.236 24.4673 59.18 24.402C59.124 24.3367 59.082 24.2947 59.054 24.276L55.036 18.144V24.164C55.036 24.2573 55.0034 24.3367 54.938 24.402C54.8727 24.4673 54.7887 24.5 54.686 24.5H53.51Z" fill="white"/>
<path d="M69.5 18L74 22.5L78.5 18" stroke="white" stroke-width="1.5" stroke-linecap="round" stroke-linejoin="round"/>
</svg>
