<svg width="42" height="42" viewBox="0 0 42 42" fill="none" xmlns="http://www.w3.org/2000/svg">
<path fill-rule="evenodd" clip-rule="evenodd" d="M6.66107 10.8612C8.2363 9.28645 10.3725 8.4018 12.5999 8.4018C14.8272 8.4018 16.9634 9.28645 18.5387 10.8612L20.9999 13.3203L23.4611 10.8612C24.2359 10.0589 25.1628 9.41899 26.1877 8.97875C27.2125 8.53852 28.3147 8.30679 29.4301 8.2971C30.5454 8.28741 31.6515 8.49994 32.6839 8.9223C33.7162 9.34466 34.6541 9.96839 35.4428 10.7571C36.2315 11.5458 36.8552 12.4837 37.2776 13.516C37.6999 14.5483 37.9125 15.6544 37.9028 16.7698C37.8931 17.8851 37.6613 18.9874 37.2211 20.0122C36.7809 21.037 36.1409 21.9639 35.3387 22.7388L20.9999 37.0797L6.66107 22.7388C5.08631 21.1636 4.20166 19.0274 4.20166 16.8C4.20166 14.5726 5.08631 12.4364 6.66107 10.8612V10.8612Z" stroke="white" stroke-width="2" stroke-linejoin="round"/>
</svg>
