<svg width="49" height="48" viewBox="0 0 49 48" fill="none" xmlns="http://www.w3.org/2000/svg">
<g clip-path="url(#clip0_675_1521)">
<path d="M24.5 0C10.9691 0 0 10.7453 0 24C0 35.255 7.91056 44.6995 18.5818 47.2934V31.3344H13.5299V24H18.5818V20.8397C18.5818 12.671 22.3558 8.8848 30.5427 8.8848C32.095 8.8848 34.7733 9.18336 35.869 9.48096V16.129C35.2908 16.0694 34.2863 16.0397 33.0387 16.0397C29.0217 16.0397 27.4694 17.5306 27.4694 21.4061V24H35.4721L34.0971 31.3344H27.4694V47.8243C39.6008 46.3891 49.001 36.2707 49.001 24C49 10.7453 38.0309 0 24.5 0Z" fill="#0F0F0F"/>
</g>
<defs>
<clipPath id="clip0_675_1521">
<rect width="49" height="48" fill="white"/>
</clipPath>
</defs>
</svg>
